<?xml version="1.0" encoding="utf-8"?>
<svg version="1.1" xmlns:xlink="http://www.w3.org/1999/xlink" width="64px" height="50px" xmlns="http://www.w3.org/2000/svg">
  <g transform="matrix(1 0 0 1 -371 -620 )">
    <path d="M 13.375 36.7009943181818  C 13.6011904761905 36.9258996212121  13.7142857142857 37.1922348484848  13.7142857142857 37.5  L 13.7142857142857 39.7727272727273  C 13.7142857142857 40.0804924242424  13.6011904761905 40.3468276515151  13.375 40.5717329545455  C 13.1488095238095 40.7966382575758  12.8809523809524 40.9090909090909  12.5714285714286 40.9090909090909  L 10.2857142857143 40.9090909090909  C 9.97619047619048 40.9090909090909  9.70833333333333 40.7966382575758  9.48214285714286 40.5717329545455  C 9.25595238095238 40.3468276515151  9.14285714285714 40.0804924242424  9.14285714285714 39.7727272727273  L 9.14285714285714 37.5  C 9.14285714285714 37.1922348484848  9.25595238095238 36.9258996212121  9.48214285714286 36.7009943181818  C 9.70833333333333 36.4760890151515  9.97619047619048 36.3636363636364  10.2857142857143 36.3636363636364  L 12.5714285714286 36.3636363636364  C 12.8809523809524 36.3636363636364  13.1488095238095 36.4760890151515  13.375 36.7009943181818  Z M 13.375 27.6100852272727  C 13.6011904761905 27.834990530303  13.7142857142857 28.1013257575758  13.7142857142857 28.4090909090909  L 13.7142857142857 30.6818181818182  C 13.7142857142857 30.9895833333333  13.6011904761905 31.2559185606061  13.375 31.4808238636364  C 13.1488095238095 31.7057291666667  12.8809523809524 31.8181818181818  12.5714285714286 31.8181818181818  L 10.2857142857143 31.8181818181818  C 9.97619047619048 31.8181818181818  9.70833333333333 31.7057291666667  9.48214285714286 31.4808238636364  C 9.25595238095238 31.2559185606061  9.14285714285714 30.9895833333333  9.14285714285714 30.6818181818182  L 9.14285714285714 28.4090909090909  C 9.14285714285714 28.1013257575758  9.25595238095238 27.834990530303  9.48214285714286 27.6100852272727  C 9.70833333333333 27.3851799242424  9.97619047619048 27.2727272727273  10.2857142857143 27.2727272727273  L 12.5714285714286 27.2727272727273  C 12.8809523809524 27.2727272727273  13.1488095238095 27.3851799242424  13.375 27.6100852272727  Z M 13.375 18.5191761363636  C 13.6011904761905 18.7440814393939  13.7142857142857 19.0104166666667  13.7142857142857 19.3181818181818  L 13.7142857142857 21.5909090909091  C 13.7142857142857 21.8986742424242  13.6011904761905 22.165009469697  13.375 22.3899147727273  C 13.1488095238095 22.6148200757576  12.8809523809524 22.7272727272727  12.5714285714286 22.7272727272727  L 10.2857142857143 22.7272727272727  C 9.97619047619048 22.7272727272727  9.70833333333333 22.6148200757576  9.48214285714286 22.3899147727273  C 9.25595238095238 22.165009469697  9.14285714285714 21.8986742424242  9.14285714285714 21.5909090909091  L 9.14285714285714 19.3181818181818  C 9.14285714285714 19.0104166666667  9.25595238095238 18.7440814393939  9.48214285714286 18.5191761363636  C 9.70833333333333 18.2942708333333  9.97619047619048 18.1818181818182  10.2857142857143 18.1818181818182  L 12.5714285714286 18.1818181818182  C 12.8809523809524 18.1818181818182  13.1488095238095 18.2942708333333  13.375 18.5191761363636  Z M 54.5178571428571 36.7009943181818  C 54.7440476190476 36.9258996212121  54.8571428571429 37.1922348484848  54.8571428571429 37.5  L 54.8571428571429 39.7727272727273  C 54.8571428571429 40.0804924242424  54.7440476190476 40.3468276515151  54.5178571428571 40.5717329545455  C 54.2916666666667 40.7966382575758  54.0238095238095 40.9090909090909  53.7142857142857 41  L 19.4285714285714 41  C 19.1190476190476 40.9090909090909  18.8511904761905 40.7966382575758  18.625 40.5717329545455  C 18.3988095238095 40.3468276515151  18.2857142857143 40.0804924242424  18.2857142857143 39.7727272727273  L 18.2857142857143 37.5  C 18.2857142857143 37.1922348484848  18.3988095238095 36.9258996212121  18.625 36.7009943181818  C 18.8511904761905 36.4760890151515  19.1190476190476 36.3636363636364  19.4285714285714 36  L 53.7142857142857 36  C 54.0238095238095 36.3636363636364  54.2916666666667 36.4760890151515  54.5178571428571 36.7009943181818  Z M 54.5178571428571 27.6100852272727  C 54.7440476190476 27.834990530303  54.8571428571429 28.1013257575758  54.8571428571429 28.4090909090909  L 54.8571428571429 30.6818181818182  C 54.8571428571429 30.9895833333333  54.7440476190476 31.2559185606061  54.5178571428571 31.4808238636364  C 54.2916666666667 31.7057291666667  54.0238095238095 31.8181818181818  53.7142857142857 31  L 19.4285714285714 31  C 19.1190476190476 31.8181818181818  18.8511904761905 31.7057291666667  18.625 31.4808238636364  C 18.3988095238095 31.2559185606061  18.2857142857143 30.9895833333333  18.2857142857143 30.6818181818182  L 18.2857142857143 28.4090909090909  C 18.2857142857143 28.1013257575758  18.3988095238095 27.834990530303  18.625 27.6100852272727  C 18.8511904761905 27.3851799242424  19.1190476190476 27.2727272727273  19.4285714285714 27  L 53.7142857142857 27  C 54.0238095238095 27.2727272727273  54.2916666666667 27.3851799242424  54.5178571428571 27.6100852272727  Z M 54.5178571428571 18.5191761363636  C 54.7440476190476 18.7440814393939  54.8571428571429 19.0104166666667  54.8571428571429 19.3181818181818  L 54.8571428571429 21.5909090909091  C 54.8571428571429 21.8986742424242  54.7440476190476 22.165009469697  54.5178571428571 22.3899147727273  C 54.2916666666667 22.6148200757576  54.0238095238095 22.7272727272727  53.7142857142857 23  L 19.4285714285714 23  C 19.1190476190476 22.7272727272727  18.8511904761905 22.6148200757576  18.625 22.3899147727273  C 18.3988095238095 22.165009469697  18.2857142857143 21.8986742424242  18.2857142857143 21.5909090909091  L 18.2857142857143 19.3181818181818  C 18.2857142857143 19.0104166666667  18.3988095238095 18.7440814393939  18.625 18.5191761363636  C 18.8511904761905 18.2942708333333  19.1190476190476 18.1818181818182  19.4285714285714 19  L 53.7142857142857 19  C 54.0238095238095 18.1818181818182  54.2916666666667 18.2942708333333  54.5178571428571 18.5191761363636  Z M 59.0892857142857 45.1171875  C 59.3154761904762 44.8922821969697  59.4285714285714 44.625946969697  59 44.3181818181818  L 59 14.7727272727273  C 59.4285714285714 14.4649621212121  59.3154761904762 14.1986268939394  59.0892857142857 13.9737215909091  C 58.8630952380952 13.7488162878788  58.5952380952381 13.6363636363636  58.2857142857143 14  L 5.71428571428571 14  C 5.40476190476191 13.6363636363636  5.13690476190476 13.7488162878788  4.91071428571429 13.9737215909091  C 4.68452380952381 14.1986268939394  4.57142857142857 14.4649621212121  5 14.7727272727273  L 5 44.3181818181818  C 4.57142857142857 44.625946969697  4.68452380952381 44.8922821969697  4.91071428571429 45.1171875  C 5.13690476190476 45.3420928030303  5.40476190476191 45.4545454545455  5.71428571428571 45  L 58.2857142857143 45  C 58.5952380952381 45.4545454545455  58.8630952380952 45.3420928030303  59.0892857142857 45.1171875  Z M 62.3214285714286 1.66903409090909  C 63.4404761904762 2.78172348484848  64 4.11931818181818  64 5.68181818181818  L 64 44.3181818181818  C 64 45.8806818181818  63.4404761904762 47.2182765151515  62.3214285714286 48.3309659090909  C 61.202380952381 49.4436553030303  59.8571428571429 50  58.2857142857143 50  L 5.71428571428571 50  C 4.14285714285714 50  2.79761904761905 49.4436553030303  1.67857142857143 48.3309659090909  C 0.55952380952381 47.2182765151515  0 45.8806818181818  0 44.3181818181818  L 0 5.68181818181818  C 0 4.11931818181818  0.55952380952381 2.78172348484848  1.67857142857143 1.66903409090909  C 2.79761904761905 0.556344696969691  4.14285714285714 0  5.71428571428571 0  L 58.2857142857143 0  C 59.8571428571429 0  61.202380952381 0.556344696969691  62.3214285714286 1.66903409090909  Z " fill-rule="nonzero" fill="#000000" stroke="none" transform="matrix(1 0 0 1 371 620 )" />
  </g>
</svg>