<?xml version="1.0" encoding="utf-8"?>
<svg version="1.1" xmlns:xlink="http://www.w3.org/1999/xlink" width="64px" height="50px" xmlns="http://www.w3.org/2000/svg">
  <g transform="matrix(1 0 0 1 -66 -621 )">
    <path d="M 29.847533632287 37.5  L 31.8565022421525 37.5  L 36.0179372197309 33.3806818181818  L 30.5650224215247 27.9829545454545  L 26.4035874439462 32.1022727272727  L 26.4035874439462 34.0909090909091  L 29.847533632287 34.0909090909091  L 29.847533632287 37.5  Z M 47.6053811659193 13.1036931818182  C 48.0119581464873 12.7012310606061  48.0239162929746 12.3106060606061  47.6412556053812 11.9318181818182  C 47.2585949177877 11.5530303030303  46.863976083707 11.5648674242424  46.457399103139 11.9673295454545  L 33.9013452914798 24.3963068181818  C 33.4947683109118 24.7987689393939  33.4828101644245 25.1893939393939  33.8654708520179 25.5681818181818  C 34.2481315396114 25.9469696969697  34.6427503736921 25.9351325757576  35.0493273542601 25.5326704545455  L 47.6053811659193 13.1036931818182  Z M 49.7937219730942 31.9957386363636  C 50.272047832586 32.1851325757576  50.5112107623318 32.5284090909091  50.5112107623318 33.0255681818182  L 50.5112107623318 39.7727272727273  C 50.5112107623318 42.5899621212121  49.5007473841555 44.9988162878788  47.4798206278027 46.9992897727273  C 45.4588938714499 48.9997632575758  43.0254110612855 50  40.1793721973094 50  L 10.3318385650224 50  C 7.48579970104634 50  5.05231689088191 48.9997632575758  3.03139013452915 46.9992897727273  C 1.01046337817638 44.9988162878788  0 42.5899621212121  0 39.7727272727273  L 0 10.2272727272727  C 0 7.41003787878787  1.01046337817638 5.00118371212121  3.03139013452915 3.00071022727273  C 5.05231689088191 1.00023674242424  7.48579970104634 0  10.3318385650224 0  L 40.1793721973094 0  C 41.6860986547085 0  43.085201793722 0.295928030303028  44.3766816143498 0.887784090909088  C 44.7354260089686 1.05350378787878  44.9506726457399 1.32575757575757  45.0224215246637 1.70454545454545  C 45.0941704035874 2.10700757575757  44.9865470852018 2.45028409090909  44.6995515695067 2.734375  L 42.9417040358744 4.47443181818182  C 42.6068759342302 4.80587121212121  42.2242152466368 4.90056818181818  41.7937219730942 4.75852272727273  C 41.2436472346786 4.61647727272727  40.7055306427504 4.54545454545455  40.1793721973094 5  L 10.3318385650224 5  C 8.75336322869955 4.54545454545455  7.40209267563528 5.10179924242424  6.2780269058296 6.21448863636363  C 5.15396113602392 7.32717803030303  4.59192825112108 8.66477272727273  5 10.2272727272727  L 5 39.7727272727273  C 4.59192825112108 41.3352272727273  5.15396113602392 42.672821969697  6.2780269058296 43.7855113636364  C 7.40209267563528 44.8982007575758  8.75336322869955 45.4545454545455  10.3318385650224 45  L 40.1793721973094 45  C 41.7578475336323 45.4545454545455  43.1091180866966 44.8982007575758  44.2331838565022 43.7855113636364  C 45.3572496263079 42.672821969697  45.9192825112108 41.3352272727273  45.9192825112108 39.7727272727273  L 45.9192825112108 35.2982954545455  C 45.9192825112108 34.9905303030303  46.0269058295964 34.7301136363636  46.2421524663677 34.5170454545455  L 48.5381165919283 32.2443181818182  C 48.8968609865471 31.8892045454545  49.3153961136024 31.8063446969697  49.7937219730942 31.9957386363636  Z M 23 30.6818181818182  L 47.067264573991 6.81818181818182  L 57.3991031390135 17.0454545454545  L 33.2914798206278 41  L 23 41  L 23 30.6818181818182  Z M 64 9.09090909090909  C 64 10.0378787878788  63.6651718983558 10.842803030303  62.9955156950673 11.5056818181818  L 59.695067264574 14.7727272727273  L 49.3632286995516 4.54545454545455  L 52.6636771300448 1.27840909090909  C 53.3333333333333 0.615530303030298  54.1464872944694 0.284090909090912  55.1031390134529 0.284090909090912  C 56.0597907324365 0.284090909090912  56.8729446935725 0.615530303030298  57.542600896861 1.27840909090909  L 62.9955156950673 6.67613636363637  C 63.6651718983558 7.33901515151514  64 8.14393939393939  64 9.09090909090909  Z " fill-rule="nonzero" fill="#000000" stroke="none" transform="matrix(1 0 0 1 66 621 )" />
  </g>
</svg>