<?xml version="1.0" encoding="utf-8"?>
<svg version="1.1" xmlns:xlink="http://www.w3.org/1999/xlink" width="64px" height="50px" xmlns="http://www.w3.org/2000/svg">
  <g transform="matrix(1 0 0 1 -657 -619 )">
    <path d="M 35.3571428571429 6.3875088715401  C 32.1904761904762 5.157321977762  28.7857142857143 4.54222853087296  25.1428571428571 4.54222853087296  C 21.5 4.54222853087296  18.0952380952381 5.157321977762  14.9285714285714 6.3875088715401  C 11.7619047619048 7.61769576531819  9.24404761904762 9.2855453039981  7.375 11.3910574875798  C 5.50595238095238 13.4965696711616  4.57142857142857 15.7558552164656  4.57142857142857 18.1689141234918  C 4.57142857142857 20.1088242252188  5.20238095238095 21.9777620061509  6.46428571428571 23.7757274662881  C 7.72619047619048 25.5736929264254  9.5 27.1350839839129  11.7857142857143 28.4599006387509  L 15.25 30.4471256210078  L 14 33.4279630943932  C 14.8095238095238 32.9548142890939  15.547619047619 32.4934942039271  16.2142857142857 32.0440028388928  L 17.7857142857143 30.943931866572  L 19.6785714285714 31.2987934705465  C 21.5357142857143 31.629997634256  23.3571428571429 31.7955997161107  25.1428571428571 31.7955997161107  C 28.7857142857143 31.7955997161107  32.1904761904762 31.1805062692217  35.3571428571429 29.9503193754436  C 38.5238095238095 28.7201324816655  41.0416666666667 27.0522829429856  42.9107142857143 24.9467707594038  C 44.7797619047619 22.8412585758221  45.7142857142857 20.5819730305181  45.7142857142857 18.1689141234918  C 45.7142857142857 15.7558552164656  44.7797619047619 13.4965696711616  42.9107142857143 11.3910574875798  C 41.0416666666667 9.2855453039981  38.5238095238095 7.61769576531819  35.3571428571429 6.3875088715401  Z M 12.5178571428571 2.43080198722498  C 16.3869047619048 0.810267329074993  20.5952380952381 0  25.1428571428571 0  C 29.6904761904762 0  33.8988095238095 0.810267329074993  37.7678571428571 2.43080198722498  C 41.6369047619048 4.05133664537496  44.6904761904762 6.2573929500828  46.9285714285714 9.04897090134847  C 49.1666666666667 11.8405488526141  50.2857142857143 14.8805299266619  50.2857142857143 18.1689141234918  C 50.2857142857143 21.4572983203217  49.1666666666667 24.4972793943695  46.9285714285714 27.2888573456352  C 44.6904761904762 30.0804352969009  41.6369047619048 32.2864916016087  37.7678571428571 33.9070262597587  C 33.8988095238095 35.5275609179087  29.6904761904762 36.3378282469837  25.1428571428571 36.3378282469837  C 23.0952380952381 36.3378282469837  21 36.148568724864  18.8571428571429 35.7700496806246  C 15.9047619047619 37.8519044239413  12.5952380952381 39.365980600899  8.92857142857143 40.3122782114975  C 8.07142857142857 40.5251951738822  7.04761904761905 40.7144546960019  5.85714285714286 40.8800567778566  L 5.75 40.8800567778566  C 5.48809523809524 40.8800567778566  5.24404761904762 40.7854270167968  5.01785714285714 40.5961674946771  C 4.79166666666667 40.4069079725574  4.65476190476191 40.1585048497753  4.60714285714286 39.8509581263307  C 4.58333333333333 39.7799858055358  4.57142857142857 39.7030991246747  4.57142857142857 39.6202980837473  C 4.57142857142857 39.53749704282  4.57738095238095 39.4606103619588  4.58928571428571 39.3896380411639  C 4.60119047619048 39.3186657203691  4.625 39.2476933995742  4.66071428571429 39.1767210787793  L 4.75 38.9992902767921  C 4.75 38.9992902767921  4.79166666666667 38.9342323160634  4.875 38.8041163946061  C 4.95833333333333 38.6740004731488  5.00595238095238 38.6148568724864  5.01785714285714 38.6266855926189  C 5.02976190476191 38.6385143127514  5.08333333333333 38.579370712089  5.17857142857143 38.4492547906317  C 5.27380952380952 38.3191388691744  5.32142857142857 38.2659096285782  5.32142857142857 38.2895670688431  C 5.44047619047619 38.1476224272534  5.71428571428571 37.8519044239413  6.14285714285714 37.402413058907  C 6.57142857142857 36.9529216938727  6.88095238095238 36.6039744499645  7.07142857142857 36.3555713271824  C 7.26190476190476 36.1071682044003  7.52976190476191 35.7641353205583  7.875 35.3264726756565  C 8.2202380952381 34.8888100307547  8.51785714285714 34.4334043056541  8.76785714285714 33.9602555003549  C 9.01785714285714 33.4871066950556  9.26190476190476 32.9666430092264  9.5 32.3988644428673  C 6.54761904761905 30.6955287437899  4.22619047619048 28.6018452803407  2.53571428571429 26.1178140525195  C 0.845238095238095 23.6337828246984  0 20.9841495150225  0 18.1689141234918  C 0 14.8805299266619  1.11904761904762 11.8405488526141  3.35714285714286 9.04897090134847  C 5.5952380952381 6.2573929500828  8.64880952380952 4.05133664537496  12.5178571428571 2.43080198722498  Z M 61.4642857142857 35.2200141944642  C 59.7738095238095 37.6922167021528  57.452380952381 39.7799858055358  54.5 41.4833215046132  C 54.7380952380952 42.0511000709723  54.9821428571429 42.5715637568015  55.2321428571429 43.0447125621008  C 55.4821428571429 43.5178613674  55.7797619047619 43.9732670925006  56.125 44.4109297374024  C 56.4702380952381 44.8485923823042  56.7380952380952 45.1916252661462  56.9285714285714 45.4400283889283  C 57.1190476190476 45.6884315117104  57.4285714285714 46.0373787556186  57.8571428571429 46.4868701206529  C 58.2857142857143 46.9363614856873  58.5595238095238 47.2320794889993  58.6785714285714 47.3740241305891  C 58.702380952381 47.397681570854  58.75 47.4509108114502  58.8214285714286 47.5337118523776  C 58.8928571428572 47.6165128933049  58.9464285714286 47.6756564939674  58.9821428571429 47.7111426543648  C 59.0178571428572 47.7466288147622  59.0654761904762 47.8057724154247  59.125 47.888573456352  C 59.1845238095238 47.9713744972794  59.2261904761905 48.036432458008  59.25 48.083747338538  L 59.3392857142857 48.2611781405252  C 59.3392857142857 48.2611781405252  59.3630952380952 48.3321504613201  59.4107142857143 48.4740951029099  C 59.4583333333333 48.6160397444996  59.4642857142857 48.6929264253608  59.4285714285714 48.7047551454933  C 59.3928571428571 48.7165838656257  59.3809523809524 48.7934705464869  59.3928571428571 48.9354151880766  C 59.3214285714286 49.2666193517861  59.1666666666667 49.5268511947007  58.9285714285714 49.7161107168204  C 58.6904761904762 49.9053702389401  58.4285714285714 49.9881712798675  58.1428571428571 49.9645138396026  C 56.952380952381 49.7989117577478  55.9285714285714 49.6096522356281  55.0714285714286 49.3967352732434  C 51.4047619047619 48.4504376626449  48.0952380952381 46.9363614856873  45.1428571428571 44.8545067423705  C 43 45.2330257866099  40.9047619047619 45.4222853087296  38.8571428571429 45.4222853087296  C 32.4047619047619 45.4222853087296  26.7857142857143 43.860894251242  22 40.7381121362669  C 23.3809523809524 40.8327418973267  24.4285714285714 40.8800567778566  25.1428571428571 40.8800567778566  C 28.9761904761905 40.8800567778566  32.6547619047619 40.347764371895  36.1785714285714 39.2831795599716  C 39.702380952381 38.2185947480483  42.8452380952381 36.6926898509581  45.6071428571429 34.7054648687012  C 48.5833333333333 32.5289803643246  50.8690476190476 30.0212916962385  52.4642857142857 27.1823988644429  C 54.0595238095238 24.3435060326473  54.8571428571429 21.3390111189969  54.8571428571429 18.1689141234918  C 54.8571428571429 16.3472912230897  54.5833333333333 14.5493257629524  54.0357142857143 12.7750177430802  C 57.1071428571429 14.4546960018926  59.5357142857143 16.5602081854743  61.3214285714286 19.0915542938254  C 63.1071428571429 21.6229004021765  64 24.3435060326473  64 27.2533711852378  C 64 30.0922640170334  63.1547619047619 32.7478116867755  61.4642857142857 35.2200141944642  Z " fill-rule="nonzero" fill="#000000" stroke="none" transform="matrix(1 0 0 1 657 619 )" />
  </g>
</svg>